<?xml version="1.0" encoding="utf-8"?>
<!-- Generator: Adobe Illustrator 15.1.0, SVG Export Plug-In . SVG Version: 6.00 Build 0)  -->
<!DOCTYPE svg PUBLIC "-//W3C//DTD SVG 1.1//EN" "http://www.w3.org/Graphics/SVG/1.1/DTD/svg11.dtd">
<svg version="1.1" id="Layer_1" xmlns="http://www.w3.org/2000/svg" xmlns:xlink="http://www.w3.org/1999/xlink" x="0px" y="0px"
	 width="483.815px" height="497.139px" viewBox="0 0 483.815 497.139" enable-background="new 0 0 483.815 497.139"
	 xml:space="preserve">
<polygon fill="#00539B" points="483.815,470.977 366.836,470.977 366.836,444.806 483.815,444.806 483.815,366.304 366.836,366.304 
	366.836,340.139 483.815,340.139 483.815,261.646 340.266,261.646 326.979,261.646 313.674,261.646 170.126,261.646 
	170.126,340.139 287.095,340.139 287.095,366.304 170.126,366.304 170.126,444.806 287.095,444.806 287.095,470.977 
	170.126,470.977 156.83,470.977 143.545,470.977 26.591,470.977 26.591,444.806 143.545,444.806 143.545,366.304 26.591,366.304 
	26.591,340.139 143.545,340.139 143.545,261.646 26.591,261.646 26.591,248.557 26.591,235.482 143.545,235.482 143.545,156.975 
	26.591,156.975 26.591,130.832 143.545,130.832 143.545,52.333 26.591,52.333 26.591,26.165 143.545,26.165 156.83,26.165 
	170.126,26.165 287.095,26.165 287.095,52.333 170.126,52.333 170.126,130.832 287.095,130.832 287.095,156.975 170.126,156.975 
	170.126,235.482 313.674,235.482 326.979,235.482 340.266,235.482 483.815,235.482 483.815,156.975 366.836,156.975 
	366.836,130.832 483.815,130.832 483.815,52.333 366.836,52.333 366.836,26.165 483.815,26.165 483.815,0 340.266,0 340.266,78.493 
	457.213,78.493 457.213,104.656 340.266,104.656 340.266,183.144 457.213,183.144 457.213,209.329 340.266,209.329 326.979,209.329 
	313.674,209.329 196.707,209.329 196.707,183.144 313.674,183.144 313.674,156.975 313.674,104.656 196.707,104.656 196.707,78.493 
	313.674,78.493 313.674,0 170.126,0 156.83,0 143.545,0 0,0 0,78.493 116.964,78.493 116.964,104.656 0,104.656 0,183.144 
	116.964,183.144 116.964,209.329 0,209.329 0,235.482 0,248.557 0,261.646 0,287.811 116.964,287.811 116.964,313.981 0,313.981 
	0,340.139 0,392.474 116.964,392.474 116.964,418.636 0,418.636 0,497.139 143.545,497.139 156.83,497.139 170.126,497.139 
	313.674,497.139 313.674,418.636 196.707,418.636 196.707,392.474 313.674,392.474 313.674,313.981 196.707,313.981 
	196.707,287.811 313.674,287.811 326.979,287.811 340.266,287.811 457.213,287.811 457.213,313.981 340.266,313.981 
	340.266,340.139 340.266,392.474 457.213,392.474 457.213,418.636 340.266,418.636 340.266,497.139 483.815,497.139 "/>
</svg>
